<?xml version="1.0" standalone="no"?>
<!DOCTYPE svg PUBLIC "-//W3C//DTD SVG 20010904//EN"
 "http://www.w3.org/TR/2001/REC-SVG-20010904/DTD/svg10.dtd">
<svg version="1.0" xmlns="http://www.w3.org/2000/svg"
 width="1500.000000pt" height="500.000000pt" viewBox="0 0 1500.000000 500.000000"
 preserveAspectRatio="xMidYMid meet">

<g transform="translate(0.000000,500.000000) scale(0.100000,-0.100000)"
fill="#000000" stroke="none">
<path d="M310 2495 l0 -1365 1365 0 1365 0 0 1365 0 1365 -1365 0 -1365 0 0
-1365z m1080 5 l0 -680 -175 0 -175 0 0 680 0 680 175 0 175 0 0 -680z m920
505 l0 -175 -170 0 -170 0 0 -330 0 -330 170 0 170 0 0 -175 0 -175 -345 0
-345 0 0 680 0 680 345 0 345 0 0 -175z"/>
<path d="M3390 2505 l0 -675 510 0 510 0 0 675 0 675 -510 0 -510 0 0 -675z
m690 0 l0 -335 -175 0 -175 0 0 335 0 335 175 0 175 0 0 -335z"/>
<path d="M4760 2505 l0 -675 170 0 170 0 0 165 0 165 340 0 340 0 0 510 0 510
-510 0 -510 0 0 -675z m690 160 l0 -175 -175 0 -175 0 0 175 0 175 175 0 175
0 0 -175z"/>
<path d="M6130 3015 l0 -165 170 0 170 0 0 -510 0 -510 170 0 170 0 0 510 0
510 170 0 170 0 0 165 0 165 -510 0 -510 0 0 -165z"/>
<path d="M7500 2505 l0 -675 170 0 170 0 0 675 0 675 -170 0 -170 0 0 -675z"/>
<path d="M8188 3013 c-2 -93 -2 -399 0 -680 l2 -513 165 0 165 0 0 515 0 515
175 0 175 0 0 -515 0 -515 170 0 170 0 0 515 0 515 170 0 170 0 0 -515 0 -515
170 0 170 0 0 680 0 680 -850 0 -850 0 -2 -167z"/>
<path d="M10240 2505 l0 -675 170 0 170 0 0 675 0 675 -170 0 -170 0 0 -675z"/>
<path d="M10920 3015 l0 -165 345 0 345 0 0 -340 0 -340 -345 0 -345 0 0 -170
0 -170 515 0 515 0 0 675 0 675 -515 0 -515 0 0 -165z"/>
<path d="M12290 2505 l0 -675 515 0 515 0 0 170 0 170 -345 0 -345 0 0 85 0
85 345 0 345 0 0 170 0 170 -345 0 -345 0 0 85 0 85 345 0 345 0 0 165 0 165
-515 0 -515 0 0 -675z"/>
<path d="M13660 2505 l0 -675 170 0 170 0 0 510 0 510 345 0 345 0 0 165 0
165 -515 0 -515 0 0 -675z"/>
</g>
</svg>
